<?xml version="1.0" encoding="utf-8"?>
<!-- Generator: Adobe Illustrator 19.1.0, SVG Export Plug-In . SVG Version: 6.00 Build 0)  -->
<svg version="1.1" xmlns="http://www.w3.org/2000/svg" xmlns:xlink="http://www.w3.org/1999/xlink" x="0px" y="0px"
	 viewBox="0 0 800 600" style="enable-background:new 0 0 800 600;" xml:space="preserve">
<style type="text/css">
	.st0{clip-path:url(#SVGID_2_);fill:#FFFFFF;}
	.st1{clip-path:url(#SVGID_2_);fill:#003580;}
	.st2{font-family:'Roboto-Regular';}
	.st3{font-size:14px;}
</style>
<g id="Finland">
	<g>
		<defs>
			<path id="SVGID_1_" d="M357.602,280.41l-2.346-9.949l-1.199-3.82l-1.924-4.776l-3.435-2.339l-0.671-1.324l-0.456-2.032
				l-0.148-2.827l-0.435-4.192l0.181-3.449l0.422-2.059l1.481-1.385l2.141-3.913l0.448-2.85l0.183-4.383l0.986-3.838l1.095-1.945
				l-0.275-1.549l-0.755-2.218l-1.597-3.154l-2.432-3.858l-1.799-3.697l-0.79-3.467l-0.407-3.104l0.067-2.831l0.674-1.929
				l2.299-2.434l0.308-1.034l-0.91-5.396l-1.603-0.983l-2.727-0.524l-1.522-0.045l-0.291-0.592l-0.075-1.089l0.308-2.225
				l0.861-2.552l0.717-1.629l0.095-1.382l-0.906-4.742l-0.273-5.836l0.31-4.588l2.888-3.395l0.131-1.242l-3.628-3.697l-2.617-4.202
				l-0.814-2.46l-2.998-0.372l-1.866-7.17l-2.699-3.505l-2.673-3.035l-1.58-1.415l-9.263-4.374l-3.68-0.835l-4.356-2.561
				l-3.245-3.222l-2.781-2.076l-2.38-2.564l-3.319-2.403l-0.949-2.058l-3.583-3.819l-1.683-2.519l-5.837-4.771l-0.211-1.886
				l-0.043-1.823l-0.263-0.758l-6.015-3.505l1.184-2.009l4.702-0.12l3.889,1.829l0.854-0.782l0.514-1.625l-1.657-6.538l0.297-1.708
				l1.711-2.059l2.712-1.642l4.285-0.237l2.92,0.243l0.618,0.179l4.362,7.21l3.74,6.997l1.989,2.972l4.864,8.383l1.818,4.829
				l0.618,3.447l1.978-0.021l6.839,1.51l5.744,1.269l1.601,1.923l3.96-0.387l3.052-1.734l5.389-2.196l1.444-2.704l1.795-2.89
				l3.159,0.455l3.454,2.284l3.921,2.997l3.493,1.385l4.687,2.17l2.187,2.8l3.063,0.799l3.207-2.798l1.894-7.619l1.681-3.412
				l2.38-2.508l2.727-1.11l2.081-0.4l1.573-1.956l2.24-4.353l0.437-5.291l-0.43-9.611l0.409-3.184l1.829-5.229l2.453-13.951
				l1.102-4.048l1.343-2.467l1.844-1.469l3.351-4.277l4.786-8.508l1.298-0.723l3.437-0.432l4.276,0.316l3.844,1.503l0.415-0.116
				l1.722-0.783l3.138-2.655l5.37-5.291L436.77,30l3.131,0.205l3.467,5.799l4.89,6.43l3.142,3.111l8.565,5.813l7.519,3.812
				l4.227,12.519l-2.083,4.955l-1.037,1.704l-3.678,4.909l-3.936,6.898l-0.301,3.582l1.306,3.603l1.629,2.378l-1.474,0.757
				l-4.556,2.986l-2.781,2.011l-3.349,1.473l0.87,1.949l5.563,0.411l0.857,0.555l0.618,1.001l0.105,1.598l-0.564,2.58l-6.011,14.142
				l-0.189,2.962l1.971,8.202l2.755,9.609l8.327,4.25l6.189,3.31l3.975,7.801l6.553,10.221l3.473,3.8l0.196,1.177l-1.033,6.982
				l-4.201,6.96l-3.93,5.84l-4.068,7.003l-3.181,5.943l-3.445,7.089l-0.396,2.29l-0.062,2.16l0.592,2.383l4.412,8.58l1.717,4.359
				l2.053,4.699l1.762,5.103l1.022,4.556l1.767,4.423l1.098,2.256l1.825,3.154l2.202,4.678l0.732,3.695l3.325,12.748l0.336,3.23
				l-0.164,2.385l-1.461,0.587l-3.226,0.378l-3.497,1.562l-0.177,0.523l2.281,2.973l-2.014,5.063l-0.291,7.218l-2.152,3.773
				l-0.202,0.876l0.097,0.731l0.381,0.572l3.986,1.005l0.344,1.02l0.017,2.109l-0.355,1.945l-2.001,1.442l-2.15,2.131l-0.476,1.957
				l0.073,1.746l0.734,2.943l1.414,3.423l1.797,2.145l6.383,2.028l0.824,1.675l0.351,2.292l-0.133,2.236l-2.966,4.46l0.024,1.713
				l1.218,4.134l1.459,3.936l6.226,4.251l2.144,2.326l0.57,1.848l0.312,2.975l-0.041,3.217l-0.489,2.851l-1.952,3.668l-4.52,7.207
				l-4.543,2.789l-0.278,0.605l1.408,2.293l8.004,9.154l5.217,4.264l7.042,5.735l4.541,4.515l1.468,3.238l1.967,3.592l2.21,2.929
				l1.593,2.538l0.6,1.63l-0.056,1.75l-2.131,5.267l-1.21,4.058l-2.133,5.927l-2.18,4.122l-5.531,7.487l-8.157,9.265l-1.894,2.792
				l-3.818,4.848l-6.534,9.68l-1.691,2.128l-5.357,7.663l-2.44,2.429l-1.918,2.267l-5.305,7.183l-5.701,5.429l-5.595,5.024
				l-1.679,2.54l-2.087,1.934l-2.492,1.838l-1.05,1.027l-5.63,6.818l-7.808,9.411l-0.794,0.146l-2.034,1.515l-3.179,0.367
				l-1.382,1.158l-4.859-3.299l-0.807-0.214l-2.858,0.819l-2.742,2.398l-5.062,0.732l-2.514,0.775l-1.603,1.106l-0.329-2.618
				l0.693-3.326l1.115-2.221l0.103-1.449l-0.818,0.151l-1.62,3.26l-0.867,3.799l-1.735,1.906l-3.814,0.779l-3.717-3.047
				l-1.765,0.031l1.108,2.183l0.749,2.392l-0.097,1.338l-1.982-0.234l-2.206,1.43l-1.935,2.09l-0.938,0.004l-1.3-2.921l-2.385,1.365
				l-2.038,1.831l-4.141,0.572l-2.469,2.403l-4.369,1.62l-2.4-0.039l-5.471,1.948l-1.818,2.998l-1.595,1.101l-2.27-0.927
				l-6.994,1.46l-6.687,1.914l-2.845-0.109l-2.845-0.794l-3.015,2.656l-3.202,3.546L332.608,570l-1.265-0.453l1.012-1.859
				l2.335-1.925l1.603-2.615l0.22-2.183l-1.102-0.858l-1.504-0.263l-1.896-2.261l-1.816-4.915l-0.984-0.27l-0.499,1.293
				l-0.557,3.768l-0.566,1.084l-0.962,0.861l-1.156,0.867l-1.128,0.421l-4.044-0.052l-0.531-1.898v-0.795l0.717-2.503l-0.626-0.438
				l0.596-1.966l0.953,0.106l1.13-0.292l0.566-1.012l-0.043-1.21l-1.571-0.314l-0.097-0.825l1.401-3.454l0.2-0.956l-0.542-0.198
				l-0.878,0.376l-5.787-1.085l-7.138-4.433l-1.756-0.229l-1.08-3.97l-1.722,0.503l-2.509,2.325l-1.883-1.766l-2.023-1.164
				l-0.56-1.82l0.028-2.689l-0.174-3.177l-0.553-3.727l-0.405-5.314l0.379-4.166l1.614-3.092l0.62-1.977l0.758-5.06l0.17-5.949
				l-0.428-2.031l0.108-1.352h1.287l-0.28-1.162l-0.566-0.635l-0.626-1.323l0.534-0.702l1.541-0.05l0.125-0.447l0.174-0.632
				l-1.192-3.487l-0.138-1.665l-1.655-5.066l-1.887-4.819l-2.841-3.496l1.007-5.775l1.147-5.24l-0.228-2.531l-0.439-3.087
				l-3.478-3.393l-0.517-4.795l-0.85-5.166l0.321-3.177l0.566-2.435l1.143-2.43l5.77-7.696l0.353-4.034l3.91-0.294l-1.814-3.617
				l-0.428-2.035l-0.09-2.379l5.626-1.631l2.1,1.341l4.95-1.656l4.395-3.245l-0.077-1.726l-0.676-1.548l-0.932-2.986l0.661-0.829
				l1.603,0.611l-0.736-1.486l0.134-1.57l1.75,0.653l2.856-4.386l0.103-3.361l4.935-1.761l5.69-6.891l2.626-2.153l2.537-1.56
				l5.404-6.936l2.314-0.324l1.19-4.697l4.595-6.273l1.397-0.804l2.148-5.684l5.643-6.598l3.577-8.458l1.973-3.016l0.611-3.22
				l2.197-0.273l1.982-2.37l4.289-1.655l4.233,0.458l1.763,1.126l1.629-0.357l-0.164-2.907l-1.162-1.799l0.949-1.73l2.238-1.312
				l-0.228-2.903l-0.486-1.75l-1.859-2.335l0.925-5.244l0.222-5.769l0.88-6.694l-2.337-3.56l-8.869-6.079l-1.655,0.211l-1.969-0.764
				l-2.057-4.626l0.919-4.003l0.105-1.479l-0.803,0.045l-1.3,1.954l-2.828,2.231l-3.676-1.712L357.602,280.41z M292.862,411.714
				l0.237,0.911l1.291-0.25l1.739-1.661l1.233,0.776l-0.14,2.371l-0.837-0.091l-0.23-0.391l-1.074,1.353l-0.192,0.819l-1.242,0.521
				l-2.294-2.315l-1.442-3.816l3.359-0.009l-0.321,0.91L292.862,411.714z M313.959,545.521l2.791,1.032l1.173-0.369l1.334,2.333
				l-2.262,1.483l-0.157,1.836l0.893,1.14l0.314,1.648l-2.253-0.002l-1.078-1.387l-0.469-1.763l-1.048-1.247l-1.397-0.951
				l0.684-1.268l0.39-1.821L313.959,545.521z M297.999,538.435l-0.308,2.08l-1.496-0.231l-1.522,0.377l-1.227-2.064l-0.656-3.487
				l0.224-0.751l0.956-0.793l0.732,1.916L297.999,538.435z M372.869,323.466l-3.29,1.728l-2.651-1.08l-0.045-3.351l1.644-1.624
				l2.972-0.65l4.067,1.624l0.594,0.866l-2.331,0.649L372.869,323.466z"/>
		</defs>
		<clipPath id="SVGID_2_">
			<use xlink:href="#SVGID_1_"  style="overflow:visible;"/>
		</clipPath>
		<rect x="8.182" y="30" class="st0" width="883.636" height="540"/>
		<rect x="8.182" y="226.364" class="st1" width="883.636" height="147.273"/>
		<rect x="253.636" y="30" class="st1" width="147.273" height="540"/>
		<use xlink:href="#SVGID_1_"  style="overflow:visible;fill:none;stroke:#000000;stroke-width:0.5;stroke-miterlimit:10;"/>
	</g>
</g>
<g id="Copyright">
	<text transform="matrix(1 0 0 1 681.6426 577.5911)" class="st2 st3">© Vemaps.com</text>
</g>
</svg>
